<svg xmlns="http://www.w3.org/2000/svg" width="103.566" height="116.5" viewBox="0 0 103.566 116.5"><defs><style>.a,.b{fill:none;stroke-miterlimit:10;stroke-width:4px;}.a{stroke:#021d49;}.b{stroke:#e1261c;}</style></defs><g transform="translate(-550.029 -269.505)"><path class="a" d="M597.843,310.9V295.77c0-8.254-14.595-12.51-22.405-12.51s-22.4,4.256-22.4,12.51V310.9" transform="translate(6.46 75.108)"/><path class="a" d="M566.83,305.957h0a12.482,12.482,0,0,1-12.443-12.444v-2.49a12.482,12.482,0,0,1,12.443-12.444h0a12.478,12.478,0,0,1,12.444,12.444v2.49A12.478,12.478,0,0,1,566.83,305.957Z" transform="translate(15.067 45.199)"/><path class="a" d="M564.473,333.732H559.5a7.468,7.468,0,0,1-7.471-7.464V278.976A7.493,7.493,0,0,1,559.5,271.5h84.625a7.474,7.474,0,0,1,7.471,7.471v47.293a7.468,7.468,0,0,1-7.471,7.464H628.436l-17.595,19.257a2.453,2.453,0,0,1-4.049-1.833V333.732h-7.471" transform="translate(0 0)"/><line class="b" x2="52.271" transform="translate(574.432 291.42)"/><line class="b" x2="52.271" transform="translate(574.432 301.376)"/><line class="b" x2="34.847" transform="translate(574.432 311.332)"/></g></svg>