<svg xmlns="http://www.w3.org/2000/svg" xmlns:xlink="http://www.w3.org/1999/xlink" viewBox="0 0 500 500" width="500" height="500" preserveAspectRatio="xMidYMid meet" style="width: 100%; height: 100%; transform: translate3d(0px, 0px, 0px); content-visibility: visible;"><defs><clipPath id="__lottie_element_10"><rect width="500" height="500" x="0" y="0"/></clipPath><clipPath id="__lottie_element_12"><path d="M0,0 L500,0 L500,500 L0,500z"/></clipPath></defs><g clip-path="url(#__lottie_element_10)"><g clip-path="url(#__lottie_element_12)" transform="matrix(1,0,0,1,0,0)" opacity="1" style="display: block;"><g class="primary design" transform="matrix(1,0,0,1,250.06700134277344,249.5780029296875)" opacity="1" style="display: block;"><g opacity="1" transform="matrix(1,0,0,1,0,0)"><path class="primary" fill="rgb(18,19,49)" fill-opacity="1" d=" M201.6939239501953,-7.4066596031188965 C201.65191650390625,-7.505659580230713 201.60092163085938,-7.6006598472595215 201.55792236328125,-7.698659896850586 C201.34291076660156,-8.180659294128418 201.12091064453125,-8.658659934997559 200.867919921875,-9.126659393310547 C200.67391967773438,-9.489659309387207 200.4549102783203,-9.83665943145752 200.2399139404297,-10.186659812927246 C200.1229248046875,-10.375659942626953 200.01791381835938,-10.568659782409668 199.8939208984375,-10.754659652709961 C198.9639129638672,-12.167659759521484 197.8609161376953,-13.452659606933594 196.62591552734375,-14.600659370422363 C196.62591552734375,-14.600659370422363 113.94491577148438,-97.28089904785156 113.94491577148438,-97.28089904785156 C105.81991577148438,-105.40589904785156 92.69491577148438,-105.40589904785156 84.56991577148438,-97.28089904785156 C76.44491577148438,-89.15589904785156 76.44491577148438,-76.03166198730469 84.56991577148438,-67.90666198730469 C84.56991577148438,-67.90666198730469 132.27891540527344,-20.197660446166992 132.27891540527344,-20.197660446166992 C132.27891540527344,-20.197660446166992 -187.52099609375,-20.910999298095703 -187.52099609375,-20.910999298095703 C-198.97900390625,-20.910999298095703 -208.35400390625,-11.53600025177002 -208.35400390625,-0.07800000160932541 C-208.35400390625,11.380237579345703 -198.97900390625,20.7549991607666 -187.52099609375,20.7549991607666 C-187.52099609375,20.7549991607666 132.27891540527344,21.468339920043945 132.27891540527344,21.468339920043945 C132.27891540527344,21.468339920043945 84.3619155883789,69.38533782958984 84.3619155883789,69.38533782958984 C76.2369155883789,77.51033782958984 76.2369155883789,90.63533782958984 84.3619155883789,98.76033782958984 C88.52891540527344,102.71833801269531 93.7369155883789,104.80233764648438 99.15391540527344,104.80233764648438 C104.57091522216797,104.80233764648438 109.77791595458984,102.71833801269531 113.94491577148438,98.76033782958984 C113.94491577148438,98.76033782958984 197.27891540527344,15.427340507507324 197.27891540527344,15.427340507507324 C203.4649200439453,9.241340637207031 204.92691040039062,0.16234026849269867 201.6939239501953,-7.4066596031188965z"/></g></g></g></g></svg>